<?xml version="1.0" encoding="UTF-8" standalone="no"?>
<!DOCTYPE svg PUBLIC "-//W3C//DTD SVG 1.1//EN" "http://www.w3.org/Graphics/SVG/1.1/DTD/svg11.dtd">
<svg version="1.1" xmlns="http://www.w3.org/2000/svg" xmlns:xlink="http://www.w3.org/1999/xlink" preserveAspectRatio="xMidYMid meet" viewBox="0 0 362 435" width="362" height="435"><defs><path d="M32.55 232.06C28.85 232.06 25.15 228.36 25.15 224.66C25.15 220.97 28.85 217.27 32.55 217.27C40.6 217.27 104.97 217.27 113.01 217.27C116.71 217.27 120.41 220.97 120.41 224.66C120.41 228.36 116.71 232.06 113.01 232.06C96.92 232.06 40.6 232.06 32.55 232.06Z" id="b2ghlYuuxs"></path><path d="M219.37 111.91C219.37 103.77 219.37 38.66 219.37 30.52C219.37 26.82 223.07 23.12 226.77 23.12C230.47 23.12 234.17 26.82 234.17 30.52C234.17 38.75 234.17 104.6 234.17 112.83C233.25 116.53 230.47 119.31 226.77 119.31C223.07 119.31 219.37 115.61 219.37 111.91Z" id="aBza3OmNi"></path><path d="M219.37 400.46C219.37 394.45 219.37 346.36 219.37 340.35C219.37 336.65 223.07 332.95 226.77 332.95C230.47 332.95 234.17 336.65 234.17 340.35C234.17 346.36 234.17 394.45 234.17 400.46C233.25 404.16 230.47 407.86 226.77 407.86C223.07 407.86 219.37 404.16 219.37 400.46Z" id="daJHNHB1v"></path><path d="M90.82 361.62C88.04 358.84 88.04 354.22 90.82 351.45C95.72 346.54 134.93 307.33 139.84 302.43C142.61 299.65 147.23 299.65 150.01 302.43C152.78 305.2 152.78 309.83 150.01 312.6C145.2 317.41 106.73 355.88 101.92 360.69C100.07 362.54 98.22 363.47 96.37 363.47C94.52 363.47 92.67 362.54 90.82 361.62Z" id="bbJNTuwUF"></path><path d="M301.69 150.75C298.91 147.98 298.91 143.35 301.69 140.58C306.49 135.77 344.97 97.29 349.78 92.49C352.55 89.71 357.18 89.71 359.95 92.49C362.73 95.26 362.73 99.88 359.95 102.66C355.14 107.47 316.67 145.94 311.86 150.75C310.93 152.6 309.08 152.6 307.23 152.6C305.38 152.6 303.53 151.68 301.69 150.75Z" id="a1EE8hdsZd"></path><path d="M347 357.92C342.38 353.29 305.38 316.3 300.76 311.68C297.99 308.9 297.99 304.28 300.76 301.5C303.53 298.73 308.16 298.73 310.93 301.5C315.56 306.13 352.55 343.12 357.18 347.75C359.95 350.52 359.95 355.14 357.18 357.92C356.25 359.77 354.4 359.77 352.55 359.77C350.7 359.77 348.85 358.84 347 357.92Z" id="d18ULwL6Js"></path><path d="M96.37 107.28C95.07 105.99 84.71 95.63 83.42 94.34C80.64 91.56 80.64 86.94 83.42 83.24C86.19 80.46 90.82 80.46 93.59 83.24C94.89 84.53 105.25 94.89 106.54 96.18C109.32 98.96 109.32 103.58 106.54 106.36C105.62 108.21 103.77 109.13 101.92 109.13C100.07 109.13 98.22 108.21 96.37 107.28Z" id="f1M7m49YtL"></path><path d="M140.76 150.75C138.36 148.35 119.12 129.11 116.71 126.71C113.94 123.93 113.94 119.31 116.71 116.53C119.49 113.76 124.11 113.76 126.89 116.53C129.29 118.94 148.53 138.17 150.93 140.58C153.71 143.35 153.71 147.98 150.93 150.75C150.01 152.6 148.16 152.6 146.31 152.6C144.46 152.6 142.61 151.68 140.76 150.75Z" id="bZjVdH9bs"></path><path d="M38.1 304.28C36.25 300.58 38.1 295.95 41.8 295.03C49.48 291.88 110.89 266.73 118.56 263.58C122.26 261.73 126.89 263.58 127.81 267.28C129.66 270.98 127.81 275.61 124.11 276.53C116.44 279.68 55.03 304.83 47.35 307.98C46.42 308.9 45.5 308.9 44.58 308.9C41.8 308.9 39.03 307.05 38.1 304.28Z" id="a7755p4rG"></path><path d="M175.9 123.93C174.7 120.97 165.08 97.29 163.88 94.34C162.03 90.64 163.88 86.01 167.58 85.09C171.28 83.24 175.9 85.09 176.83 88.79C178.03 91.75 187.65 115.42 188.85 118.38C190.7 122.08 188.85 126.71 185.15 127.63C184.23 128.55 183.3 128.55 182.38 128.55C179.6 128.55 176.83 126.71 175.9 123.93Z" id="broT9bY1n"></path><path d="M153.71 68.44C152.78 66.31 145.38 49.29 144.46 47.17C142.61 43.47 144.46 38.84 148.16 37.92C151.86 36.07 156.48 37.92 157.41 41.62C158.33 43.75 165.73 60.76 166.66 62.89C168.51 66.59 166.66 71.21 162.96 72.14C162.03 73.06 161.11 73.06 160.18 73.06C157.41 73.06 154.63 71.21 153.71 68.44Z" id="b1zP0aw4N"></path><path d="M287.81 392.14C285.41 386.31 266.17 339.7 263.77 333.87C261.92 330.17 263.77 325.55 267.47 324.62C271.16 322.77 275.79 324.62 276.71 328.32C279.12 334.15 298.36 380.76 300.76 386.59C302.61 390.29 300.76 394.91 297.06 395.84C296.14 396.76 295.21 396.76 294.29 396.76C291.51 396.76 288.74 394.91 287.81 392.14Z" id="a3GMY5duIR"></path><path d="M267.47 127.63C263.77 125.78 261.92 122.08 263.77 118.38C266.82 110.98 291.23 51.79 294.29 44.39C296.14 40.69 299.84 38.84 303.53 40.69C307.23 42.54 309.08 46.24 307.23 49.94C304.18 57.34 279.77 116.53 276.71 123.93C275.79 126.71 273.01 128.55 270.24 128.55C269.32 128.55 268.39 128.55 267.47 127.63Z" id="d3wplkVk50"></path><path d="M158.33 389.36C154.63 387.51 152.78 383.82 154.63 380.12C156.76 374.94 173.78 333.5 175.9 328.32C177.75 324.62 181.45 322.77 185.15 324.62C188.85 326.47 190.7 330.17 188.85 333.87C186.73 339.05 169.71 380.49 167.58 385.66C166.66 388.44 163.88 390.29 161.11 390.29C160.18 390.29 159.26 390.29 158.33 389.36Z" id="a19EYbJWEZ"></path><path d="M118.56 188.67C111.07 185.53 51.14 160.37 43.65 157.23C39.95 155.38 38.1 151.68 39.95 147.98C41.8 144.28 45.5 142.43 49.2 144.28C56.69 147.42 116.62 172.58 124.11 175.72C127.81 177.57 129.66 181.27 127.81 184.97C126.89 187.75 124.11 189.6 121.34 189.6C120.41 189.6 119.49 189.6 118.56 188.67Z" id="b3wittuK21"></path><path d="M51.97 260.81C51.05 257.11 53.82 253.41 57.52 252.49C63.07 251.38 107.47 242.5 113.01 241.39C116.71 240.46 120.41 243.24 121.34 246.94C122.26 250.64 119.49 254.34 115.79 255.26C110.24 256.37 65.85 265.25 60.3 266.36C60.3 266.36 59.37 266.36 59.37 266.36C55.67 266.36 52.9 263.58 51.97 260.81Z" id="a56DtkotUB"></path><path d="M0.18 270.98C-0.74 267.28 2.03 263.58 5.73 262.66C8.23 262.2 28.21 258.5 30.7 258.03C34.4 257.11 38.1 259.88 39.03 263.58C39.95 267.28 37.18 270.98 33.48 271.91C30.98 272.37 11 276.07 8.51 276.53C8.51 276.53 7.58 276.53 7.58 276.53C3.88 276.53 1.11 273.76 0.18 270.98Z" id="b165S9FGZJ"></path><path d="M246.19 366.24C245.64 363.56 241.2 342.1 240.64 339.42C239.72 335.72 242.49 332.02 246.19 331.1C249.89 330.17 253.59 332.95 254.52 336.65C255.07 339.33 259.51 360.79 260.07 363.47C260.99 367.17 258.22 370.87 254.52 371.79C254.52 371.79 254.52 371.79 253.59 371.79C249.89 371.79 247.12 369.02 246.19 366.24Z" id="byzeFOHS7"></path><path d="M259.14 430.06C258.31 425.99 251.65 393.43 250.82 389.36C249.89 385.66 252.67 381.97 256.37 381.04C260.07 380.12 263.77 382.89 264.69 386.59C265.52 390.66 272.18 423.21 273.01 427.28C273.94 430.98 271.16 434.68 267.47 435.61C267.47 435.61 267.47 435.61 266.54 435.61C262.84 435.61 260.07 432.83 259.14 430.06Z" id="b4SXnk1n9U"></path><path d="M197.18 116.53C196.71 114.22 193.01 95.72 192.55 93.41C191.63 89.71 194.4 86.01 198.1 85.09C201.8 84.16 205.5 86.94 206.42 90.64C206.89 92.95 210.59 111.45 211.05 113.76C211.97 117.46 209.2 121.16 205.5 122.08C205.5 122.08 204.58 122.08 204.58 122.08C200.88 122.08 198.1 119.31 197.18 116.53Z" id="b10VN54VZb"></path><path d="M187 67.51C185.89 61.6 177.01 14.24 175.9 8.32C174.98 4.62 177.75 0.92 181.45 0C185.15 -0.92 188.85 1.85 189.78 5.55C190.98 11.47 200.6 58.82 201.8 64.74C202.73 68.44 199.95 72.14 196.25 73.06C195.33 73.06 195.33 73.06 194.4 73.06C190.7 73.06 187.93 70.29 187 67.51Z" id="b2hSHz1QuE"></path><path d="M285.96 137.8C282.26 135.95 281.34 131.33 284.11 127.63C286.06 124.76 301.59 101.83 303.53 98.96C305.38 95.26 310.01 94.34 313.71 97.11C317.41 98.96 318.33 103.58 315.56 107.28C313.62 110.15 298.08 133.09 296.14 135.95C294.29 137.8 291.51 138.73 289.66 138.73C288.74 138.73 286.89 138.73 285.96 137.8Z" id="c9e3331Emw"></path><path d="M320.18 86.94C316.48 85.09 315.56 80.46 318.33 76.76C320.74 73.16 339.97 44.3 342.38 40.69C344.23 36.99 348.85 36.07 351.63 37.92C355.33 39.77 356.25 44.39 353.48 48.09C351.07 51.7 331.84 80.55 329.43 84.16C328.51 86.94 325.73 87.86 323.88 87.86C322.96 87.86 321.11 87.86 320.18 86.94Z" id="aCtNVOHKG"></path><path d="M106.54 406.94C102.84 405.09 101.92 400.46 104.69 396.76C106.82 393.62 123.84 368.46 125.96 365.32C127.81 361.62 132.44 360.69 136.14 363.47C139.84 365.32 140.76 369.94 137.99 373.64C135.86 376.79 118.84 401.94 116.71 405.09C114.86 406.94 112.09 407.86 110.24 407.86C109.32 407.86 107.47 407.86 106.54 406.94Z" id="a4u0CkzePT"></path><path d="M142.61 353.29C138.91 351.45 137.99 346.82 140.76 343.12C142.52 340.53 156.58 319.82 158.33 317.23C160.18 313.53 164.81 312.6 168.51 315.38C172.21 317.23 173.13 321.85 170.36 325.55C168.6 328.14 154.54 348.86 152.78 351.45C150.93 352.37 148.16 354.22 146.31 354.22C145.38 354.22 143.53 354.22 142.61 353.29Z" id="b1NlTn8hzR"></path><path d="M127.81 169.25C125.96 167.95 111.16 157.6 109.32 156.3C105.62 154.45 104.69 149.83 107.47 146.13C109.32 142.43 113.94 141.5 117.64 144.28C119.49 145.57 134.29 155.93 136.14 157.23C139.84 159.08 140.76 163.7 137.99 167.4C136.14 169.25 134.29 170.17 131.51 170.17C130.59 170.17 128.74 170.17 127.81 169.25Z" id="c3M65nWhHR"></path><path d="M88.04 142.43C82.4 138.64 37.27 108.3 31.63 104.51C27.93 102.66 27 98.03 29.78 94.34C32.55 91.56 36.25 90.64 39.95 92.49C45.59 96.28 90.73 126.61 96.37 130.4C100.07 132.25 100.99 136.88 98.22 140.58C96.37 142.43 94.52 143.35 91.74 143.35C90.82 143.35 88.97 143.35 88.04 142.43Z" id="cpLEaC5g"></path><path d="M51.05 344.05C49.2 340.35 50.12 336.65 52.9 333.87C56.51 331.47 85.36 312.23 88.97 309.83C92.67 307.98 96.37 308.9 99.14 311.68C100.99 315.38 100.07 319.08 97.29 321.85C93.69 324.25 64.83 343.49 61.22 345.9C60.3 345.9 58.45 346.82 57.52 346.82C54.75 346.82 52.9 345.9 51.05 344.05Z" id="cOfnRYTXK"></path><path d="M110.24 303.35C108.39 299.65 109.32 295.95 112.09 293.18C113.57 292.16 125.41 284.02 126.89 283.01C130.59 281.16 134.29 282.08 137.06 284.86C138.91 288.55 137.99 292.25 135.21 295.03C133.82 296.05 122.73 304.18 121.34 305.2C119.49 306.13 118.56 306.13 116.71 306.13C113.94 306.13 112.09 305.2 110.24 303.35Z" id="jGDW5RUGl"></path><path d="M156.48 135.95C150.66 127.26 104.04 57.71 98.22 49.02C96.37 45.32 97.29 41.62 100.07 38.84C103.77 36.07 108.39 36.99 111.16 40.69C116.99 49.39 163.6 118.94 169.43 127.63C171.28 131.33 170.36 135.03 167.58 137.8C165.73 138.73 164.81 138.73 162.96 138.73C160.18 138.73 158.33 137.8 156.48 135.95Z" id="ac7lapVwK"></path><path d="M331.28 397.69C328.97 394.27 310.47 366.89 308.16 363.47C306.31 359.77 307.23 356.07 310.01 353.29C313.71 351.45 317.41 352.37 320.18 355.14C322.49 358.57 340.99 385.94 343.3 389.36C345.15 393.06 344.23 396.76 341.45 399.54C340.53 400.46 339.6 400.46 337.75 400.46C334.98 400.46 333.13 399.54 331.28 397.69Z" id="b1u9HscqIq"></path><path d="M293.36 341.27C292.34 339.7 284.21 327.12 283.19 325.55C281.34 321.85 282.26 318.15 285.04 315.38C288.74 313.53 292.44 314.45 295.21 317.23C296.23 318.8 304.37 331.38 305.38 332.95C307.23 336.65 306.31 340.35 303.53 343.12C302.61 343.12 301.69 344.05 299.84 344.05C297.06 344.05 295.21 343.12 293.36 341.27Z" id="alUeQZcOX"></path><path d="M187 419.88C183.3 418.96 180.53 415.26 181.45 411.56C182.93 404.07 194.77 344.14 196.25 336.65C197.18 332.95 200.88 330.17 204.58 331.1C208.27 332.02 211.05 335.72 210.12 339.42C208.64 346.91 196.81 406.84 195.33 414.34C195.33 417.11 192.55 419.88 188.85 419.88C187.93 419.88 187.93 419.88 187 419.88Z" id="b6dLWhttZi"></path><path d="M247.12 122.08C243.42 121.16 240.64 117.46 241.57 113.76C243.42 104.42 258.22 29.69 260.07 20.35C260.99 16.65 264.69 13.87 268.39 14.8C272.09 15.72 274.86 19.42 273.94 23.12C272.09 32.46 257.29 107.19 255.44 116.53C254.52 119.31 251.74 122.08 248.97 122.08C248.04 122.08 248.04 122.08 247.12 122.08Z" id="b7HTqQxonD"></path><path d="M113.01 210.87C109.13 210.13 78.06 204.21 74.17 203.47C70.47 202.54 67.7 198.84 68.62 195.14C69.55 191.45 73.25 188.67 76.95 189.6C80.92 190.34 112.74 196.25 116.71 196.99C120.41 197.92 123.19 201.62 122.26 205.32C121.34 209.02 118.56 210.87 114.86 210.87C113.94 210.87 113.94 210.87 113.01 210.87Z" id="a5jo29bQeJ"></path><path d="M47.35 197.92C43.56 197.18 13.22 191.26 9.43 190.52C5.73 189.6 2.96 185.9 3.88 182.2C4.81 178.5 8.51 175.72 12.21 176.65C16 177.39 46.33 183.31 50.12 184.05C53.82 184.97 56.6 188.67 55.67 192.37C55.67 196.07 52.9 197.92 49.2 197.92C48.27 197.92 48.27 197.92 47.35 197.92Z" id="a1uL1wCtKM"></path></defs><g><g><g><use xlink:href="#b2ghlYuuxs" opacity="1" fill="#ffffff" fill-opacity="1"></use><g><use xlink:href="#b2ghlYuuxs" opacity="1" fill-opacity="0" stroke="#000000" stroke-width="1" stroke-opacity="0"></use></g></g><g><use xlink:href="#aBza3OmNi" opacity="1" fill="#ffffff" fill-opacity="1"></use><g><use xlink:href="#aBza3OmNi" opacity="1" fill-opacity="0" stroke="#000000" stroke-width="1" stroke-opacity="0"></use></g></g><g><use xlink:href="#daJHNHB1v" opacity="1" fill="#ffffff" fill-opacity="1"></use><g><use xlink:href="#daJHNHB1v" opacity="1" fill-opacity="0" stroke="#000000" stroke-width="1" stroke-opacity="0"></use></g></g><g><use xlink:href="#bbJNTuwUF" opacity="1" fill="#ffffff" fill-opacity="1"></use><g><use xlink:href="#bbJNTuwUF" opacity="1" fill-opacity="0" stroke="#000000" stroke-width="1" stroke-opacity="0"></use></g></g><g><use xlink:href="#a1EE8hdsZd" opacity="1" fill="#ffffff" fill-opacity="1"></use><g><use xlink:href="#a1EE8hdsZd" opacity="1" fill-opacity="0" stroke="#000000" stroke-width="1" stroke-opacity="0"></use></g></g><g><use xlink:href="#d18ULwL6Js" opacity="1" fill="#ffffff" fill-opacity="1"></use><g><use xlink:href="#d18ULwL6Js" opacity="1" fill-opacity="0" stroke="#000000" stroke-width="1" stroke-opacity="0"></use></g></g><g><use xlink:href="#f1M7m49YtL" opacity="1" fill="#ffffff" fill-opacity="1"></use><g><use xlink:href="#f1M7m49YtL" opacity="1" fill-opacity="0" stroke="#000000" stroke-width="1" stroke-opacity="0"></use></g></g><g><use xlink:href="#bZjVdH9bs" opacity="1" fill="#ffffff" fill-opacity="1"></use><g><use xlink:href="#bZjVdH9bs" opacity="1" fill-opacity="0" stroke="#000000" stroke-width="1" stroke-opacity="0"></use></g></g><g><use xlink:href="#a7755p4rG" opacity="1" fill="#ffffff" fill-opacity="1"></use><g><use xlink:href="#a7755p4rG" opacity="1" fill-opacity="0" stroke="#000000" stroke-width="1" stroke-opacity="0"></use></g></g><g><use xlink:href="#broT9bY1n" opacity="1" fill="#ffffff" fill-opacity="1"></use><g><use xlink:href="#broT9bY1n" opacity="1" fill-opacity="0" stroke="#000000" stroke-width="1" stroke-opacity="0"></use></g></g><g><use xlink:href="#b1zP0aw4N" opacity="1" fill="#ffffff" fill-opacity="1"></use><g><use xlink:href="#b1zP0aw4N" opacity="1" fill-opacity="0" stroke="#000000" stroke-width="1" stroke-opacity="0"></use></g></g><g><use xlink:href="#a3GMY5duIR" opacity="1" fill="#ffffff" fill-opacity="1"></use><g><use xlink:href="#a3GMY5duIR" opacity="1" fill-opacity="0" stroke="#000000" stroke-width="1" stroke-opacity="0"></use></g></g><g><use xlink:href="#d3wplkVk50" opacity="1" fill="#ffffff" fill-opacity="1"></use><g><use xlink:href="#d3wplkVk50" opacity="1" fill-opacity="0" stroke="#000000" stroke-width="1" stroke-opacity="0"></use></g></g><g><use xlink:href="#a19EYbJWEZ" opacity="1" fill="#ffffff" fill-opacity="1"></use><g><use xlink:href="#a19EYbJWEZ" opacity="1" fill-opacity="0" stroke="#000000" stroke-width="1" stroke-opacity="0"></use></g></g><g><use xlink:href="#b3wittuK21" opacity="1" fill="#ffffff" fill-opacity="1"></use><g><use xlink:href="#b3wittuK21" opacity="1" fill-opacity="0" stroke="#000000" stroke-width="1" stroke-opacity="0"></use></g></g><g><use xlink:href="#a56DtkotUB" opacity="1" fill="#ffffff" fill-opacity="1"></use><g><use xlink:href="#a56DtkotUB" opacity="1" fill-opacity="0" stroke="#000000" stroke-width="1" stroke-opacity="0"></use></g></g><g><use xlink:href="#b165S9FGZJ" opacity="1" fill="#ffffff" fill-opacity="1"></use><g><use xlink:href="#b165S9FGZJ" opacity="1" fill-opacity="0" stroke="#000000" stroke-width="1" stroke-opacity="0"></use></g></g><g><use xlink:href="#byzeFOHS7" opacity="1" fill="#ffffff" fill-opacity="1"></use><g><use xlink:href="#byzeFOHS7" opacity="1" fill-opacity="0" stroke="#000000" stroke-width="1" stroke-opacity="0"></use></g></g><g><use xlink:href="#b4SXnk1n9U" opacity="1" fill="#ffffff" fill-opacity="1"></use><g><use xlink:href="#b4SXnk1n9U" opacity="1" fill-opacity="0" stroke="#000000" stroke-width="1" stroke-opacity="0"></use></g></g><g><use xlink:href="#b10VN54VZb" opacity="1" fill="#ffffff" fill-opacity="1"></use><g><use xlink:href="#b10VN54VZb" opacity="1" fill-opacity="0" stroke="#000000" stroke-width="1" stroke-opacity="0"></use></g></g><g><use xlink:href="#b2hSHz1QuE" opacity="1" fill="#ffffff" fill-opacity="1"></use><g><use xlink:href="#b2hSHz1QuE" opacity="1" fill-opacity="0" stroke="#000000" stroke-width="1" stroke-opacity="0"></use></g></g><g><use xlink:href="#c9e3331Emw" opacity="1" fill="#ffffff" fill-opacity="1"></use><g><use xlink:href="#c9e3331Emw" opacity="1" fill-opacity="0" stroke="#000000" stroke-width="1" stroke-opacity="0"></use></g></g><g><use xlink:href="#aCtNVOHKG" opacity="1" fill="#ffffff" fill-opacity="1"></use><g><use xlink:href="#aCtNVOHKG" opacity="1" fill-opacity="0" stroke="#000000" stroke-width="1" stroke-opacity="0"></use></g></g><g><use xlink:href="#a4u0CkzePT" opacity="1" fill="#ffffff" fill-opacity="1"></use><g><use xlink:href="#a4u0CkzePT" opacity="1" fill-opacity="0" stroke="#000000" stroke-width="1" stroke-opacity="0"></use></g></g><g><use xlink:href="#b1NlTn8hzR" opacity="1" fill="#ffffff" fill-opacity="1"></use><g><use xlink:href="#b1NlTn8hzR" opacity="1" fill-opacity="0" stroke="#000000" stroke-width="1" stroke-opacity="0"></use></g></g><g><use xlink:href="#c3M65nWhHR" opacity="1" fill="#ffffff" fill-opacity="1"></use><g><use xlink:href="#c3M65nWhHR" opacity="1" fill-opacity="0" stroke="#000000" stroke-width="1" stroke-opacity="0"></use></g></g><g><use xlink:href="#cpLEaC5g" opacity="1" fill="#ffffff" fill-opacity="1"></use><g><use xlink:href="#cpLEaC5g" opacity="1" fill-opacity="0" stroke="#000000" stroke-width="1" stroke-opacity="0"></use></g></g><g><use xlink:href="#cOfnRYTXK" opacity="1" fill="#ffffff" fill-opacity="1"></use><g><use xlink:href="#cOfnRYTXK" opacity="1" fill-opacity="0" stroke="#000000" stroke-width="1" stroke-opacity="0"></use></g></g><g><use xlink:href="#jGDW5RUGl" opacity="1" fill="#ffffff" fill-opacity="1"></use><g><use xlink:href="#jGDW5RUGl" opacity="1" fill-opacity="0" stroke="#000000" stroke-width="1" stroke-opacity="0"></use></g></g><g><use xlink:href="#ac7lapVwK" opacity="1" fill="#ffffff" fill-opacity="1"></use><g><use xlink:href="#ac7lapVwK" opacity="1" fill-opacity="0" stroke="#000000" stroke-width="1" stroke-opacity="0"></use></g></g><g><use xlink:href="#b1u9HscqIq" opacity="1" fill="#ffffff" fill-opacity="1"></use><g><use xlink:href="#b1u9HscqIq" opacity="1" fill-opacity="0" stroke="#000000" stroke-width="1" stroke-opacity="0"></use></g></g><g><use xlink:href="#alUeQZcOX" opacity="1" fill="#ffffff" fill-opacity="1"></use><g><use xlink:href="#alUeQZcOX" opacity="1" fill-opacity="0" stroke="#000000" stroke-width="1" stroke-opacity="0"></use></g></g><g><use xlink:href="#b6dLWhttZi" opacity="1" fill="#ffffff" fill-opacity="1"></use><g><use xlink:href="#b6dLWhttZi" opacity="1" fill-opacity="0" stroke="#000000" stroke-width="1" stroke-opacity="0"></use></g></g><g><use xlink:href="#b7HTqQxonD" opacity="1" fill="#ffffff" fill-opacity="1"></use><g><use xlink:href="#b7HTqQxonD" opacity="1" fill-opacity="0" stroke="#000000" stroke-width="1" stroke-opacity="0"></use></g></g><g><use xlink:href="#a5jo29bQeJ" opacity="1" fill="#ffffff" fill-opacity="1"></use><g><use xlink:href="#a5jo29bQeJ" opacity="1" fill-opacity="0" stroke="#000000" stroke-width="1" stroke-opacity="0"></use></g></g><g><use xlink:href="#a1uL1wCtKM" opacity="1" fill="#ffffff" fill-opacity="1"></use><g><use xlink:href="#a1uL1wCtKM" opacity="1" fill-opacity="0" stroke="#000000" stroke-width="1" stroke-opacity="0"></use></g></g></g></g></svg>